{"title":"Moskva-Kassiopeya (1974) DVDRip DiOS-HANGiT","uid":7612478,"size":917443934,"categoryP":"video","categoryS":"movies","magnet":"?xt=urn:btih:a978bd395c17aba70d0085d261116bc3a9bd7545&amp;dn=Moskva-Kassiopeya+%281974%29+DVDRip+DiOS-HANGiT&amp;tr=udp%3A%2F%2Ftracker.openbittorrent.com%3A80&amp;tr=udp%3A%2F%2Fopen.demonii.com%3A1337&amp;tr=udp%3A%2F%2Ftracker.coppersurfer.tk%3A6969&amp;tr=udp%3A%2F%2Fexodus.desync.com%3A6969","seeders":0,"leechers":0,"uploader":"DiOSRiP","files":-1,"time":1347064126,"description":"***************************************************************************\nIf you've downloaded this torrent on any other website, that's alright, \nbecause that's what we're here for. However, don't forget to visit\n Cuelgame.net, the main website where we usually release everything.\n***************************************************************************\n\n///////////////////// PLOT SUMMARY AND DETAILS/////////////////////////////\n\nTitle : Moskva-Kassiopeya\nYear : 1974\nCountry : Russia\nGenre(s) : Family,Science Fiction\nDirector(s) : Richard Viktorov\nStars : Innokenti Smoktunovsky, Misha Yershov and Aleksandr Grigoryev\nPlot : In this children's sci-fi adventure, a crew of adolescents are sent to a distant star within the constellation Cassiopeia in the hopes that by the time they arrive as adults. However, they reach their destination much sooner than expected, and various teenage problems get in the way.\n\n\n///////////////////////////// OTHER DETAILS //////////////////////////////\n\nRipper : DiOS\nFormat : AVI\nFormat/Info : Audio Video Interleave\nFile size : 866 MiB\nDuration : 1h 19mn\nOverall bit rate : 1 516 Kbps\nVideo ID : 0\nFormat : MPEG-4 Visual\nFormat profile : Advanced Simple@L5\nFormat settings, BVOP : 2\nFormat settings, QPel : No\nFormat settings, GMC : No warppoints\nFormat settings, Matrix : Default (H.263)\nMuxing mode : Packed bitstream\nCodec ID : XVID\nCodec ID/Hint : XviD\nDuration : 1h 19mn\nBit rate : 1 058 Kbps\nWidth : 720 pixels\nHeight : 294 pixels\nDisplay aspect ratio : 2.40:1\nFrame rate : 25.000 fps\nColor space : YUV\nChroma subsampling : 4:2:0\nBit depth : 8 bits\nScan type : Progressive\nCompression mode : Lossy\nBits/(Pixel*Frame) : 0.200\nStream size : 604 MiB (70%)\nWriting library : XviD 1.2.1 (UTC 2008-12-04)\nAudio ID : 1\nFormat : AC-3\nFormat/Info : Audio Coding 3\nMode extension : CM (complete main)\nFormat settings, Endianness: Big\nCodec ID : 2000\nDuration : 1h 19mn\nBit rate mode : Constant\nBit rate : 448 Kbps\nChannel(s) : 6 channels\nChannel positions : Front: L C R, Side: L R, LFE\nSampling rate : 48.0 KHz\nBit depth : 16 bits\nCompression mode : Lossy\nStream size : 256 MiB (30%)\nAlignment : Aligned on interleaves\nInterleave, duration : 32 ms (0.80 video frame)\nInterleave, preload duration : 32 ms\n\n","torrent":{"xt":"urn:btih:a978bd395c17aba70d0085d261116bc3a9bd7545","amp;dn":"Moskva-Kassiopeya+%281974%29+DVDRip+DiOS-HANGiT","amp;tr":["udp%3A%2F%2Ftracker.openbittorrent.com%3A80","udp%3A%2F%2Fopen.demonii.com%3A1337","udp%3A%2F%2Ftracker.coppersurfer.tk%3A6969","udp%3A%2F%2Fexodus.desync.com%3A6969"],"infoHash":"a978bd395c17aba70d0085d261116bc3a9bd7545","infoHashBuffer":{"type":"Buffer","data":[169,120,189,57,92,23,171,167,13,0,133,210,97,17,107,195,169,189,117,69]},"announce":[],"urlList":[]}}